<svg id="Layer_1" data-name="Layer 1" xmlns="http://www.w3.org/2000/svg" viewBox="0 0 1476.04 275.91"><defs><style>.cls-1{fill:#1976d2;}.cls-2{fill:#13203c;}</style></defs><path class="cls-1" d="M484.23,928.68a11.45,11.45,0,0,0-4.2-7.82,10.18,10.18,0,0,0-5.55-2H438.91c-4.34,0-7.85,3.08-7.85,6.89q.13,86.06.29,172.13a114.12,114.12,0,0,0,17.15-1,83.2,83.2,0,0,0,22.38-5.6,74.45,74.45,0,0,0,13.38-7.28Z" transform="translate(-221.98 -822.09)"/><path class="cls-1" d="M361.53,965.83l0,132.17h53.2V965.83c0-2.94-3.64-5.32-8.14-5.32H369.68C365.18,960.51,361.53,962.89,361.53,965.83Z" transform="translate(-221.98 -822.09)"/><path class="cls-1" d="M291.91,1002.75l0,95.25h53.21v-95.25c0-2.11-3.65-3.83-8.15-3.83H300.05C295.55,998.92,291.91,1000.64,291.91,1002.75Z" transform="translate(-221.98 -822.09)"/><path class="cls-2" d="M222.28,887.27l0,210.64h53.2V887.27Z" transform="translate(-221.98 -822.09)"/><path class="cls-2" d="M222,822.12H416.81c18.19,0,18.15-.06,19.54,0,32,1.36,57.29,17.71,65.42,23.08,10.49,6.92,40.71,28.87,55.1,68.94a133.52,133.52,0,0,1,6,23.08c1.64,9.83,7.08,45.54-11.94,84.14a137.64,137.64,0,0,1-50.22,55.38V999.92c1.61-3,21.11-40.89.41-79.81-19.15-36-56.73-42.85-61.08-43.56H222Z" transform="translate(-221.98 -822.09)"/><path class="cls-2" d="M687.32,978.07q15.12,13.68,15.12,41.26v75.75H673.89v-15.73a35.27,35.27,0,0,1-15.86,13q-10.28,4.47-24.8,4.47t-25.41-5A39.18,39.18,0,0,1,591,1078a35,35,0,0,1-5.93-20q0-17.41,12.95-28t40.78-10.53h33.39v-1.93q0-13.56-8.11-20.81T640,989.57A69.78,69.78,0,0,0,618.59,993a52.87,52.87,0,0,0-17.79,9.44l-11.86-22a73.59,73.59,0,0,1,24.45-11.86,108.8,108.8,0,0,1,30.25-4.11Q672.19,964.4,687.32,978.07Zm-27.59,91.48a28.29,28.29,0,0,0,12.46-14.89v-15H641q-26.13,0-26.13,17.18a15.44,15.44,0,0,0,6.53,13.07q6.54,4.85,18.15,4.84A39.07,39.07,0,0,0,659.73,1069.55Z" transform="translate(-221.98 -822.09)"/><path class="cls-2" d="M818.84,1088.06a35.62,35.62,0,0,1-12.94,6.53,58.08,58.08,0,0,1-16.1,2.18q-21.3,0-32.91-11.13t-11.62-32.43V991H724v-24.2h21.29V937.29h30.25v29.53h34.61V991H775.52v61.47q0,9.43,4.6,14.4t13.31,5q10.17,0,16.94-5.33Z" transform="translate(-221.98 -822.09)"/><path class="cls-2" d="M936.82,978.07q15.12,13.68,15.12,41.26v75.75H923.39v-15.73a35.27,35.27,0,0,1-15.86,13q-10.28,4.47-24.8,4.47t-25.41-5A39.18,39.18,0,0,1,840.5,1078a35,35,0,0,1-5.93-20q0-17.41,12.95-28t40.78-10.53h33.39v-1.93q0-13.56-8.11-20.81t-24.07-7.26A69.78,69.78,0,0,0,868.09,993a52.87,52.87,0,0,0-17.79,9.44l-11.86-22a73.59,73.59,0,0,1,24.45-11.86,108.8,108.8,0,0,1,30.25-4.11Q921.69,964.4,936.82,978.07Zm-27.59,91.48a28.29,28.29,0,0,0,12.46-14.89v-15H890.47q-26.13,0-26.13,17.18a15.44,15.44,0,0,0,6.53,13.07q6.54,4.85,18.15,4.84A39.07,39.07,0,0,0,909.23,1069.55Z" transform="translate(-221.98 -822.09)"/><path class="cls-2" d="M999.86,1092.66q-15-4.11-24-10.41l11.61-23a74.8,74.8,0,0,0,20.94,9.32,86.89,86.89,0,0,0,24.08,3.51q27.09,0,27.1-14.28,0-6.76-6.9-9.44t-22.14-5.08a178.48,178.48,0,0,1-26-5.57,39.79,39.79,0,0,1-17.43-11q-7.38-7.86-7.38-21.9,0-18.39,15.37-29.4t41.5-11a120.16,120.16,0,0,1,26.62,3q13.31,3,21.78,8.11l-11.62,23a71.67,71.67,0,0,0-37-9.68q-13.32,0-20.21,4c-4.6,2.67-6.9,6.17-6.9,10.53q0,7.26,7.39,10.29t22.86,5.68a176.65,176.65,0,0,1,25.41,5.57,39.87,39.87,0,0,1,17.07,10.65q7.13,7.5,7.13,21.29,0,18.15-15.73,29t-42.83,10.89A115.74,115.74,0,0,1,999.86,1092.66Z" transform="translate(-221.98 -822.09)"/><path class="cls-2" d="M1138.52,1088.3a62.07,62.07,0,0,1-24.92-23.59q-9-15.12-9-34.25t9-34.12a62.59,62.59,0,0,1,24.8-23.47q15.86-8.48,36.18-8.47,19.11,0,33.52,7.74a50.35,50.35,0,0,1,21.66,22.27L1206.52,1008a36.88,36.88,0,0,0-13.91-13.43,38,38,0,0,0-18.27-4.48q-17,0-28.07,11t-11.14,29.4q0,18.4,11,29.41t28.19,11a38,38,0,0,0,18.27-4.48,36.88,36.88,0,0,0,13.91-13.43l23.24,13.55a52.46,52.46,0,0,1-21.9,22.39q-14.41,7.86-33.28,7.86Q1154.5,1096.77,1138.52,1088.3Z" transform="translate(-221.98 -822.09)"/><path class="cls-2" d="M1375,1040.14h-101.4a35.09,35.09,0,0,0,13.91,22.63q11.27,8.36,28,8.35,21.3,0,35.09-14l16.22,18.64a54.64,54.64,0,0,1-22,15.73,80.24,80.24,0,0,1-30,5.32q-21.3,0-37.51-8.47a61,61,0,0,1-25-23.59q-8.84-15.12-8.83-34.25a67.62,67.62,0,0,1,8.59-34,60.89,60.89,0,0,1,23.84-23.59q15.24-8.48,34.36-8.47,18.87,0,33.76,8.35a59.07,59.07,0,0,1,23.23,23.47q8.36,15.13,8.35,35Q1375.44,1034.34,1375,1040.14Zm-89.42-43q-10.05,8.59-12.22,22.87h73.32q-1.94-14-11.86-22.75t-24.68-8.71Q1295.58,988.6,1285.54,997.19Z" transform="translate(-221.98 -822.09)"/><path class="cls-2" d="M1517,981.6q14.76,14.28,14.76,42.35v74h-30.25v-70.18q0-16.93-8-25.53t-22.74-8.59q-16.71,0-26.38,10t-9.68,28.92V1098h-30.25V968.77h28.8v16.7a47.22,47.22,0,0,1,18.87-13.55,68,68,0,0,1,25.65-4.6Q1502.25,967.32,1517,981.6Z" transform="translate(-221.98 -822.09)"/><path class="cls-2" d="M1698,915.51v179.57h-29v-16.7a46.73,46.73,0,0,1-18.51,13.79,62.47,62.47,0,0,1-24.32,4.6q-18.64,0-33.52-8.23a59,59,0,0,1-23.35-23.35q-8.47-15.12-8.47-34.73t8.47-34.6a59.28,59.28,0,0,1,23.35-23.23q14.88-8.24,33.52-8.23a61.49,61.49,0,0,1,23.47,4.35,47.24,47.24,0,0,1,18.15,13.07V915.51Zm-48.64,150.41a35.87,35.87,0,0,0,13.79-14.16,47.17,47.17,0,0,0,0-42.59A35.87,35.87,0,0,0,1649.38,995a41.21,41.21,0,0,0-39.2,0,35.9,35.9,0,0,0-13.8,14.16,47.17,47.17,0,0,0,0,42.59,35.9,35.9,0,0,0,13.8,14.16,41.21,41.21,0,0,0,39.2,0Z" transform="translate(-221.98 -822.09)"/></svg>